<svg width="117" height="116" viewBox="0 0 117 116" fill="none" xmlns="http://www.w3.org/2000/svg">
<circle cx="58.3232" cy="58.0356" r="57.8232" fill="white"/>
<path d="M53.5428 73.7931C51.4218 74.6357 49.1081 75.0989 46.6861 75.0989C36.4437 75.0989 28.1406 66.8143 28.1406 56.5948C28.1406 46.3752 36.4437 28.1851 46.6861 28.1851C54.6922 28.1851 61.5135 39.2993 64.1104 49.0334" stroke="#228B22" stroke-width="3" stroke-linecap="round"/>
<path d="M70.4219 46.0054C70.4851 46.0043 70.5541 46.0232 70.6211 46.0747C72.4465 47.4798 76.1895 50.593 79.4639 54.7583C82.7556 58.9458 85.4385 64.0245 85.4385 69.3911C85.4385 77.6801 78.7023 84.4058 70.3867 84.4058C62.0749 84.4056 55.3359 77.6524 55.3359 69.3599C55.336 64.4075 58.0152 59.3919 61.3398 55.1157C64.6355 50.877 68.3982 47.5771 70.2168 46.0854C70.286 46.0287 70.3581 46.0065 70.4219 46.0054Z" stroke="#228B22" stroke-width="3"/>
<path d="M79.0113 68.1968C79.0113 73.8082 74.4521 78.3572 68.8281 78.3572" stroke="#228B22" stroke-width="3" stroke-linecap="round"/>
<path d="M54.8835 50.8022C54.8835 55.5985 50.9867 59.4867 46.1797 59.4867" stroke="#228B22" stroke-width="3" stroke-linecap="round"/>
<path d="M51.4983 42.7515C51.4983 45.3853 49.3584 47.5204 46.7188 47.5204" stroke="#228B22" stroke-width="3" stroke-linecap="round"/>
<path d="M38.554 50.8022C38.554 55.5985 42.4508 59.4867 47.2578 59.4867" stroke="#228B22" stroke-width="3" stroke-linecap="round"/>
<path d="M41.9392 42.7515C41.9392 45.3853 44.0791 47.5204 46.7188 47.5204" stroke="#228B22" stroke-width="3" stroke-linecap="round"/>
<path d="M46.7188 38.1187L46.7188 86.5116" stroke="#228B22" stroke-width="3" stroke-linecap="round"/>
</svg>
