<svg width="71" height="56" viewBox="0 0 71 56" fill="none" xmlns="http://www.w3.org/2000/svg">
<path fill-rule="evenodd" clip-rule="evenodd" d="M10.2664 41.9664C-4.9111 13.7391 37.0656 -5.86537 70.9599 2.07491C69.8609 32.9866 41.7828 63.2979 16.5454 47.9352C21.7524 37.7199 27.3416 29.6004 38.2847 22.758C39.0175 22.2779 39.7523 21.8132 40.5079 21.353C39.6708 21.6394 38.8495 21.9331 38.024 22.2451C27.1264 25.9947 18.0827 33.4116 10.2664 41.9664Z" fill="#1C731C"/>
<path d="M16.5216 47.9405C15.2811 50.3742 14.0623 52.9268 12.7979 55.6094L0.632812 53.6643C0.884082 53.334 0.986604 53.1928 1.07635 53.0693C1.18338 52.9219 1.27245 52.7993 1.574 52.4107C4.29993 48.8577 7.17687 45.3272 10.2426 41.9718C18.5941 32.8311 33.0889 20.2552 50.5488 15.1289C33.239 26.0619 28.9892 31.895 16.5216 47.9405Z" fill="white"/>
</svg>
