<svg width="66" height="67" viewBox="0 0 66 67" fill="none" xmlns="http://www.w3.org/2000/svg">
<g clip-path="url(#clip0_1_119)">
<path d="M1.21582 5.37734C0.873047 4.86172 0.695312 4.24297 0.695312 3.62422C0.695312 1.87109 2.0918 0.453125 3.81836 0.453125H17.6943C19.1162 0.453125 20.4492 1.21367 21.1729 2.45117L29.8691 17.1594C23.75 17.9457 18.2783 20.8461 14.2031 25.1387L1.21582 5.37734ZM65.1621 5.37734L52.1875 25.1387C48.1123 20.8461 42.6406 17.9457 36.5215 17.1594L45.2178 2.45117C45.9541 1.21367 47.2744 0.453125 48.6963 0.453125H62.5723C64.2988 0.453125 65.6953 1.87109 65.6953 3.62422C65.6953 4.24297 65.5176 4.86172 65.1748 5.37734H65.1621ZM10.8516 43.7656C10.8516 37.7485 13.2056 31.9779 17.3959 27.7231C21.5862 23.4684 27.2694 21.0781 33.1953 21.0781C39.1212 21.0781 44.8045 23.4684 48.9947 27.7231C53.185 31.9779 55.5391 37.7485 55.5391 43.7656C55.5391 49.7827 53.185 55.5534 48.9947 59.8081C44.8045 64.0628 39.1212 66.4531 33.1953 66.4531C27.2694 66.4531 21.5862 64.0628 17.3959 59.8081C13.2056 55.5534 10.8516 49.7827 10.8516 43.7656ZM34.2617 31.5324C33.8301 30.6301 32.5732 30.6301 32.1289 31.5324L29.2852 37.3848C29.1074 37.7457 28.7773 37.9906 28.3965 38.0422L22.0234 38.9832C21.0459 39.125 20.665 40.3367 21.3633 41.0457L25.9717 45.609C26.251 45.8926 26.3779 46.2793 26.3145 46.6789L25.2227 53.1113C25.0576 54.091 26.0732 54.8516 26.9492 54.3875L32.6367 51.3453C32.9795 51.1648 33.3984 51.1648 33.7412 51.3453L39.4287 54.3875C40.3047 54.8516 41.3203 54.1039 41.1553 53.1113L40.0635 46.6789C40 46.2922 40.127 45.8926 40.4062 45.609L45.0146 41.0457C45.7256 40.3496 45.332 39.1379 44.3545 38.9832L37.9941 38.0422C37.6133 37.9906 37.2705 37.7328 37.1055 37.3848L34.2617 31.5324Z" fill="#1C731C"/>
</g>
<defs>
<clipPath id="clip0_1_119">
<rect width="65" height="66" fill="white" transform="translate(0.695312 0.453125)"/>
</clipPath>
</defs>
</svg>
