<svg width="60" height="66" viewBox="0 0 60 66" fill="none" xmlns="http://www.w3.org/2000/svg">
<path d="M59.292 24.5359C59.292 44.3969 47.657 58.7964 31.4651 65.3593C30.6071 65.707 29.6459 65.707 28.7879 65.3593C12.596 58.7964 0.960938 44.3969 0.960938 24.5359C0.96094 20.8934 1.35314 17.3459 2.0959 13.9405L2.11126 13.8733C2.44614 12.4669 3.58271 11.4333 4.95797 11.1818L5.41913 11.096C7.95064 10.6172 13.7496 9.39944 17.4075 7.74861C21.0663 6.09739 26.0187 2.46298 27.9109 1.0244C29.2221 0.0274544 31.0358 0.0431807 32.3284 1.05351L32.3895 1.10229L32.7569 1.40039C34.7466 3.00551 38.9617 6.25453 42.1619 7.7668C46.1915 9.67098 52.8662 10.8305 55.1964 11.1877C56.636 11.4084 57.8403 12.4846 58.1627 13.9665C58.9018 17.364 59.292 20.9027 59.292 24.5359Z" fill="#1C731C"/>
<path d="M42.7018 22.0016C43.6948 21.0086 45.3047 21.0086 46.2977 22.0016C47.2907 22.9946 47.2907 24.6045 46.2977 25.5975L28.1051 43.7902C26.9656 44.9297 25.1181 44.9297 23.9786 43.7902L13.9635 33.7749C12.9705 32.7819 12.9705 31.172 13.9635 30.179C14.9565 29.186 16.5664 29.186 17.5594 30.179L26.0418 38.6615L42.7018 22.0016Z" fill="white"/>
</svg>
