<svg width="64" height="64" viewBox="0 0 64 64" fill="none" xmlns="http://www.w3.org/2000/svg">
<path d="M57.3594 9.87988C57.3594 21.0742 49.0228 30.3272 38.2227 31.756C37.523 26.4939 35.2073 21.7443 31.7879 18.0292C35.562 11.289 42.7753 6.72656 51.0527 6.72656H54.2061C55.9502 6.72656 57.3594 8.1357 57.3594 9.87988ZM6.90625 16.1865C6.90625 14.4423 8.31539 13.0332 10.0596 13.0332H13.2129C25.4024 13.0332 35.2861 22.9169 35.2861 35.1064V38.2598V54.0264C35.2861 55.7705 33.877 57.1797 32.1328 57.1797C30.3886 57.1797 28.9795 55.7705 28.9795 54.0264V38.2598C16.7899 38.2598 6.90625 28.3761 6.90625 16.1865Z" fill="#1C731C"/>
</svg>
