<svg width="86" height="50" viewBox="0 0 86 50" fill="none" xmlns="http://www.w3.org/2000/svg">
<path d="M20.1752 21.3868C20.1165 21.2427 19.977 21.1485 19.8221 21.1484L13.4302 21.1446C13.2752 21.1445 13.1355 21.2387 13.0767 21.3829L12.0012 24.0204C11.9424 24.1645 11.8028 24.2587 11.6479 24.2587H9.64005C9.36786 24.2587 9.18307 23.9805 9.28732 23.7277L15.028 9.80494L15.162 9.48543C15.2016 9.39094 15.202 9.28444 15.1631 9.18966L14.5137 7.60863H17.0248C17.1788 7.60863 17.3177 7.70163 17.3771 7.84449L23.9806 23.7266C24.0858 23.9796 23.901 24.2587 23.6283 24.2587H21.6016C21.4466 24.2587 21.307 24.1645 21.2483 24.0203L20.1752 21.3868ZM19.1116 18.8935C19.1318 18.8935 16.6077 12.6708 16.6077 12.6708L14.2847 18.3664C14.1816 18.6192 14.3647 18.8963 14.6363 18.8961C15.9514 18.8953 19.0957 18.8935 19.1116 18.8935Z" fill="white"/>
<path d="M66.6191 21.3827C66.6778 21.2386 66.8173 21.1444 66.9722 21.1443L73.3641 21.1405C73.5191 21.1404 73.6588 21.2346 73.7176 21.3788L74.7931 24.0163C74.8519 24.1604 74.9915 24.2546 75.1464 24.2546H77.1543C77.4265 24.2546 77.6112 23.9764 77.507 23.7235L71.7663 9.8008L71.6323 9.48129C71.5927 9.3868 71.5923 9.2803 71.6312 9.18552L72.2806 7.60449H69.7695C69.6155 7.60449 69.4766 7.69749 69.4172 7.84035L62.8137 23.7225C62.7085 23.9754 62.8933 24.2546 63.166 24.2546H65.1927C65.3477 24.2546 65.4873 24.1604 65.546 24.0162L66.6191 21.3827ZM67.6827 18.8894C67.6626 18.8894 70.1866 12.6666 70.1866 12.6666L72.5096 18.3623C72.6127 18.615 72.4296 18.8921 72.158 18.892C70.8429 18.8912 67.6986 18.8894 67.6827 18.8894Z" fill="white"/>
<path d="M59.3547 9.3019C59.5656 9.3019 59.7365 9.4738 59.7365 9.68586V23.8706C59.7365 24.0827 59.5656 24.2546 59.3547 24.2546H57.2784C57.0675 24.2546 56.8966 24.0827 56.8966 23.8706V9.68586C56.8966 9.4738 57.0675 9.3019 57.2784 9.3019H59.3547Z" fill="white"/>
<path d="M40.6387 23.8748C40.6387 24.0868 40.8097 24.2587 41.0205 24.2587H43.0968C43.3077 24.2587 43.4787 24.0868 43.4787 23.8748V21.3136C43.4787 21.2087 43.5214 21.1084 43.5968 21.0359L45.8455 18.8769L47.6221 17.1711L51.8706 13.0918L54.4831 10.4603C54.7233 10.2183 54.5529 9.80506 54.2129 9.80506L51.7295 9.80509C51.6281 9.80509 51.5309 9.84561 51.4593 9.91773L46.8418 14.567L44.127 17.2278C43.8851 17.4649 43.4787 17.2925 43.4787 16.9528V10.189C43.4787 9.97696 43.3077 9.80505 43.0968 9.80505H41.0205C40.8097 9.80505 40.6387 9.97696 40.6387 10.189V23.8748Z" fill="white"/>
<path d="M51.3109 24.1518C51.382 24.2204 51.4768 24.2587 51.5753 24.2587H54.1687C54.5147 24.2587 54.6823 23.8329 54.4299 23.5947L47.6221 17.1711L45.8455 18.8769L51.3109 24.1518Z" fill="white"/>
<path d="M31.9482 24.5016C30.7726 24.5016 29.7145 24.3333 28.774 23.9968C27.8335 23.6463 27.0945 23.1556 26.5571 22.5247C26.2055 22.1119 25.9689 21.6542 25.8473 21.1514C25.7935 20.9289 25.9726 20.7289 26.2003 20.7289H28.6197C28.789 20.7289 28.9347 20.8426 29.004 20.998C29.1527 21.3318 29.3867 21.6234 29.7061 21.8728C30.2435 22.2793 30.9909 22.4826 31.9482 22.4826C32.9391 22.4826 33.7117 22.2864 34.2659 21.8938C34.8201 21.4872 35.0972 20.9684 35.0972 20.3375C35.0972 19.8468 34.9209 19.4472 34.5682 19.1388C34.2323 18.8303 33.804 18.592 33.2834 18.4237C32.7795 18.2555 32.0742 18.0732 31.1672 17.877C30.0252 17.6246 29.0931 17.3722 28.3709 17.1199C27.6655 16.8535 27.0609 16.4469 26.5571 15.9001C26.0532 15.3533 25.8013 14.6242 25.8013 13.7129C25.8013 12.8717 26.0532 12.1356 26.5571 11.5047C27.0609 10.8738 27.7663 10.3901 28.6732 10.0536C29.5801 9.7171 30.6298 9.54886 31.8222 9.54886C33.5185 9.54886 34.9041 9.90638 35.979 10.6214C36.8012 11.1494 37.3472 11.8286 37.6168 12.6589C37.6914 12.8887 37.5096 13.1105 37.2692 13.1105H34.7865C34.628 13.1105 34.4895 13.0097 34.4097 12.872C34.2574 12.6089 34.0247 12.3705 33.7117 12.1566C33.1574 11.7781 32.4269 11.5888 31.5199 11.5888C30.697 11.5888 30.0252 11.7641 29.5046 12.1146C28.9839 12.4651 28.7236 12.9698 28.7236 13.6288C28.7236 14.0774 28.8832 14.449 29.2023 14.7434C29.5381 15.0238 29.958 15.2481 30.4619 15.4164C30.9657 15.5846 31.6543 15.7669 32.5276 15.9632C33.6865 16.2296 34.627 16.4959 35.3492 16.7623C36.0881 17.0287 36.7095 17.4423 37.2134 18.0031C37.734 18.5499 37.9943 19.286 37.9943 20.2113C37.9943 20.9544 37.7508 21.6554 37.2638 22.3144C36.7935 22.9734 36.0965 23.5061 35.1728 23.9127C34.2659 24.3053 33.191 24.5016 31.9482 24.5016Z" fill="white"/>
<path d="M35.2179 5.17341C29.7589 4.3108 28.8968 -1.92631 26.1284 0.858118C23.36 3.64255 34.5163 12.7222 47.7261 3.2063C43.6152 3.96163 40.7067 5.77668 35.2179 5.17341Z" fill="white"/>
<path d="M50.1571 2.4223C55.6161 3.2849 56.4782 9.52201 59.2466 6.73759C62.015 3.95316 50.8587 -5.12649 37.6489 4.3894C41.7598 3.63407 44.6683 1.81903 50.1571 2.4223Z" fill="white"/>
<path d="M0.429688 44.4806C0.429688 44.4806 7.2746 45.2674 16.2183 46.0323V47.3234C16.2183 47.3234 32.5725 49.8526 43.2148 49.8526C53.8572 49.8526 70.2114 47.3234 70.2114 47.3234V46.0323C79.1551 45.2674 86 44.4806 86 44.4806V28.9873C86 28.9873 60.2278 33.1338 43.2148 33.1338C26.2019 33.1338 0.429688 28.9873 0.429688 28.9873V44.4806Z" fill="#228B22"/>
<path fill-rule="evenodd" clip-rule="evenodd" d="M2.66174 42.8037L2.65034 42.9028L2.5625 42.8926V32.4756H2.76098V42.7147C2.81032 42.7203 2.88009 42.7283 2.96945 42.7385C3.16413 42.7606 3.45177 42.7931 3.82356 42.8343C4.56713 42.9168 5.64727 43.0345 6.99341 43.1751C9.68569 43.4565 13.4418 43.8298 17.6973 44.1979L17.788 44.2058V45.4545C17.8134 45.4584 17.8444 45.4632 17.881 45.4688C17.9973 45.4866 18.1694 45.5127 18.392 45.546C18.8371 45.6125 19.4844 45.7076 20.2929 45.8216C21.9099 46.0498 24.1713 46.354 26.7491 46.6582C31.9059 47.2667 38.3247 47.8747 43.3831 47.8747C48.4416 47.8747 54.8604 47.2667 60.0171 46.6582C62.5949 46.354 64.8564 46.0498 66.4733 45.8216C67.2818 45.7076 67.9291 45.6125 68.3743 45.546C68.5969 45.5127 68.7689 45.4866 68.8853 45.4688C68.9218 45.4632 68.9528 45.4584 68.9782 45.4545V44.2058L69.069 44.1979C73.3244 43.8298 77.0806 43.4565 79.7728 43.1751C81.119 43.0345 82.1991 42.9168 82.9427 42.8343C83.3145 42.7931 83.6021 42.7606 83.7968 42.7385C83.8504 42.7324 83.897 42.7271 83.9363 42.7226L84.0052 42.7147V32.4756H84.2037V42.8926L84.1159 42.9028L84.1045 42.8037C84.1159 42.9028 84.1159 42.9028 84.1159 42.9028L84.1147 42.903L84.0405 42.9115C83.9907 42.9172 83.9165 42.9257 83.8191 42.9368C83.6242 42.959 83.3364 42.9915 82.9644 43.0327C82.2205 43.1152 81.1399 43.2329 79.7934 43.3737C77.1193 43.6531 73.3962 44.0233 69.1767 44.3889V45.6256L69.0927 45.6387L69.0775 45.5401C69.0927 45.6387 69.0928 45.6387 69.0927 45.6387L69.092 45.6388L69.0899 45.6391L69.0476 45.6457C69.0178 45.6503 68.9734 45.6572 68.9151 45.6661C68.7985 45.6839 68.6263 45.7101 68.4035 45.7434C67.9578 45.81 67.31 45.9051 66.5009 46.0193C64.8828 46.2476 62.6199 46.552 60.0402 46.8564C54.8821 47.4651 48.4537 48.0743 43.3831 48.0743C38.3125 48.0743 31.8842 47.4651 26.726 46.8564C24.1464 46.552 21.8834 46.2476 20.2653 46.0193C19.4563 45.9051 18.8084 45.81 18.3628 45.7434C18.14 45.7101 17.9677 45.6839 17.8511 45.6661C17.7928 45.6572 17.7484 45.6503 17.7186 45.6457L17.6742 45.6388L17.6737 45.6387C17.6736 45.6387 17.6735 45.6387 17.6888 45.5401L17.6737 45.6387L17.5895 45.6256V44.3889C13.37 44.0233 9.6469 43.6531 6.97289 43.3737C5.6263 43.2329 4.54574 43.1152 3.80179 43.0327C3.42982 42.9915 3.14199 42.959 2.94715 42.9368C2.84972 42.9257 2.77554 42.9172 2.72571 42.9115L2.65034 42.9028C2.65029 42.9028 2.65034 42.9028 2.66174 42.8037Z" fill="url(#paint0_linear_173_211)"/>
<path d="M9.4928 39.848L8.67738 39.6371L7.5488 36.354L6.83104 39.1594L6.01562 38.9484L7.06304 34.8545L7.87845 35.0654L9.00554 38.3544L9.7248 35.5431L10.5402 35.754L9.4928 39.848Z" fill="white"/>
<path d="M10.7358 38.4147C10.8093 38.0842 10.9392 37.8056 11.1252 37.579C11.3152 37.3532 11.537 37.1965 11.7907 37.109C12.0482 37.0224 12.3159 37.0104 12.5937 37.0729C12.8363 37.1275 13.0366 37.2243 13.1947 37.3632C13.3567 37.5029 13.4758 37.6599 13.5521 37.834L13.6559 37.3678L14.4834 37.5541L13.7555 40.8236L12.928 40.6373L13.0344 40.1592C12.8946 40.2889 12.7194 40.3837 12.5088 40.4437C12.303 40.5007 12.0789 40.5019 11.8363 40.4473C11.5624 40.3856 11.3278 40.2584 11.1324 40.0657C10.9409 39.8738 10.8071 39.6351 10.731 39.3494C10.6597 39.0607 10.6613 38.7491 10.7358 38.4147ZM13.2919 39.0025C13.3366 38.8019 13.3356 38.6219 13.2889 38.4627C13.243 38.2995 13.1619 38.1656 13.0455 38.0609C12.93 37.9522 12.796 37.8807 12.6434 37.8464C12.4908 37.812 12.3416 37.8177 12.1959 37.8634C12.0501 37.9091 11.9199 37.9954 11.8054 38.1225C11.6956 38.2465 11.6188 38.4069 11.575 38.6036C11.5312 38.8003 11.5318 38.9823 11.5768 39.1494C11.6265 39.3134 11.7072 39.4494 11.8188 39.5571C11.9343 39.6657 12.0664 39.7368 12.215 39.7703C12.3676 39.8046 12.5188 39.7994 12.6684 39.7546C12.819 39.7058 12.9491 39.6195 13.0589 39.4954C13.1696 39.3675 13.2473 39.2032 13.2919 39.0025Z" fill="white"/>
<path d="M16.2869 38.6249L15.9729 40.2146C15.951 40.3253 15.9605 40.4115 16.0015 40.4731C16.0472 40.5316 16.1329 40.5734 16.2588 40.5985L16.6422 40.6751L16.5039 41.375L15.9848 41.2713C15.2888 41.1323 15.0079 40.7227 15.1423 40.0425L15.4552 38.4588L15.0658 38.381L15.2006 37.6989L15.5899 37.7766L15.7504 36.964L16.5822 37.1301L16.4216 37.9428L17.1531 38.0889L17.0183 38.771L16.2869 38.6249Z" fill="white"/>
<path d="M21.0235 38.7829L20.4524 42.0837L19.617 41.9375L19.6891 41.5205C19.5577 41.6448 19.3979 41.7335 19.2097 41.7865C19.0261 41.8362 18.8336 41.8434 18.6321 41.8082C18.3754 41.7633 18.1575 41.6699 17.9786 41.5281C17.8003 41.3823 17.6721 41.1942 17.594 40.9636C17.5205 40.7298 17.5092 40.4659 17.56 40.172L17.895 38.2356L18.7246 38.3807L18.4102 40.1979C18.3648 40.4601 18.3949 40.6741 18.5005 40.8399C18.6068 41.0017 18.7726 41.1023 18.9977 41.1417C19.2268 41.1818 19.4186 41.1437 19.573 41.0275C19.7281 40.9073 19.8283 40.7161 19.8736 40.454L20.1881 38.6367L21.0235 38.7829Z" fill="white"/>
<path d="M22.7788 39.5754C22.9119 39.416 23.0711 39.2992 23.2564 39.2251C23.4457 39.1516 23.6514 39.1315 23.8734 39.1648L23.743 40.0441L23.5229 40.0111C23.2612 39.9718 23.0537 40.0039 22.9006 40.1072C22.7514 40.2112 22.654 40.4167 22.6084 40.7238L22.3635 42.3747L21.5308 42.2497L22.0224 38.936L22.8551 39.061L22.7788 39.5754Z" fill="white"/>
<path d="M24.1797 40.944C24.2212 40.6079 24.3237 40.318 24.4871 40.0744C24.6545 39.8312 24.8603 39.6538 25.1044 39.5421C25.3525 39.4309 25.6177 39.3929 25.9002 39.4282C26.1469 39.459 26.3556 39.5359 26.5263 39.6587C26.7009 39.7821 26.8346 39.9268 26.9272 40.0928L26.9857 39.6186L27.8273 39.7238L27.4165 43.0486L26.575 42.9435L26.635 42.4573C26.5083 42.5999 26.3431 42.7113 26.1392 42.7915C25.9399 42.8682 25.7168 42.8911 25.4702 42.8603C25.1916 42.8255 24.9459 42.7216 24.7329 42.5488C24.5239 42.3764 24.3678 42.1518 24.2647 41.8748C24.166 41.5943 24.1377 41.284 24.1797 40.944ZM26.7804 41.281C26.8056 41.077 26.7873 40.898 26.7255 40.744C26.6642 40.586 26.5706 40.4606 26.4447 40.3677C26.3194 40.2707 26.1791 40.2126 26.0239 40.1932C25.8687 40.1738 25.7208 40.1939 25.5801 40.2536C25.4394 40.3132 25.3181 40.4118 25.2163 40.5494C25.1189 40.6835 25.0579 40.8505 25.0332 41.0506C25.0084 41.2506 25.0265 41.4316 25.0873 41.5936C25.1525 41.7521 25.2459 41.8795 25.3673 41.976C25.4927 42.0729 25.631 42.1308 25.7822 42.1497C25.9374 42.1691 26.0873 42.1492 26.2319 42.0901C26.3771 42.027 26.4984 41.9284 26.5957 41.7943C26.6936 41.6562 26.7552 41.4851 26.7804 41.281Z" fill="white"/>
<path d="M29.7766 38.791L29.3246 43.2431L28.487 43.1571L28.939 38.705L29.7766 38.791Z" fill="white"/>
<path d="M35.8556 39.5264L35.5737 43.7381L34.7336 43.6812L34.8536 41.8891L33.0594 41.7676L32.9394 43.5597L32.0994 43.5028L32.3814 39.2912L33.2214 39.348L33.1055 41.0798L34.8996 41.2012L35.0156 39.4695L35.8556 39.5264Z" fill="white"/>
<path d="M39.8174 42.1607C39.8129 42.2816 39.8008 42.3901 39.7812 42.4862L37.3472 42.3944C37.3582 42.6369 37.4353 42.8294 37.5784 42.972C37.7216 43.1146 37.9013 43.1899 38.1177 43.1981C38.4302 43.2099 38.6576 43.0833 38.7999 42.8183L39.7074 42.8526C39.5992 43.1712 39.405 43.4302 39.1247 43.6294C38.8446 43.8246 38.5062 43.9148 38.1096 43.8998C37.789 43.8877 37.5032 43.8063 37.252 43.6557C37.005 43.5011 36.8143 43.2902 36.6798 43.0228C36.5494 42.7557 36.4905 42.4509 36.5033 42.1084C36.5162 41.7619 36.5977 41.4604 36.7476 41.2038C36.8976 40.9472 37.1015 40.7532 37.3591 40.6217C37.6168 40.4902 37.9099 40.4306 38.2385 40.443C38.555 40.4549 38.8349 40.5341 39.0782 40.6804C39.3255 40.8269 39.5125 41.0297 39.6393 41.2886C39.7702 41.5437 39.8296 41.8344 39.8174 42.1607ZM38.955 41.8862C38.9591 41.6684 38.8874 41.4923 38.74 41.3576C38.5927 41.2189 38.4089 41.1454 38.1885 41.1371C37.9802 41.1292 37.8015 41.187 37.6524 41.3105C37.5075 41.4301 37.4149 41.6021 37.3744 41.8266L38.955 41.8862Z" fill="white"/>
<path d="M41.4912 41.1018C41.6019 40.9259 41.7442 40.7889 41.918 40.6906C42.0959 40.5923 42.297 40.5448 42.5215 40.548L42.5089 41.4369L42.2864 41.4337C42.0218 41.4299 41.8205 41.4895 41.6824 41.6126C41.5483 41.7356 41.4791 41.9524 41.4746 42.2628L41.4509 43.9317L40.609 43.9196L40.6567 40.5696L41.4985 40.5817L41.4912 41.1018Z" fill="white"/>
<path d="M44.1076 41.0862C44.2142 40.9238 44.3612 40.7912 44.5487 40.6885C44.7401 40.5858 44.9581 40.5331 45.2026 40.5306C45.4873 40.5277 45.7446 40.5956 45.9745 40.7344C46.2085 40.8731 46.393 41.0728 46.5279 41.3335C46.6668 41.5901 46.738 41.8898 46.7415 42.2325C46.745 42.5751 46.6799 42.8802 46.5463 43.1477C46.4166 43.4111 46.2363 43.6166 46.0052 43.7641C45.7782 43.9116 45.5223 43.9868 45.2377 43.9897C44.9891 43.9922 44.7701 43.9461 44.5807 43.8513C44.3953 43.7524 44.2456 43.6249 44.1318 43.4688L44.1366 43.9465L43.2947 43.9551L43.2493 39.4802L44.0913 39.4715L44.1076 41.0862ZM45.8815 42.2413C45.8795 42.0397 45.8356 41.8668 45.75 41.7225C45.6683 41.5742 45.5589 41.4624 45.4218 41.3872C45.2887 41.3119 45.144 41.2751 44.9876 41.2767C44.8353 41.2783 44.6914 41.3201 44.5559 41.4021C44.4244 41.4801 44.3173 41.5941 44.2346 41.7441C44.1559 41.8941 44.1176 42.0698 44.1196 42.2714C44.1217 42.473 44.1635 42.648 44.2452 42.7963C44.3309 42.9446 44.4404 43.0584 44.5735 43.1377C44.7106 43.2129 44.8553 43.2497 45.0076 43.2481C45.164 43.2465 45.3079 43.2047 45.4394 43.1228C45.5749 43.0407 45.682 42.9247 45.7606 42.7747C45.8433 42.6247 45.8836 42.4469 45.8815 42.2413Z" fill="white"/>
<path d="M47.3422 42.2175C47.3286 41.8791 47.3826 41.5763 47.5043 41.3091C47.63 41.0417 47.8041 40.8329 48.0268 40.6826C48.2535 40.5321 48.5091 40.4511 48.7935 40.4396C49.0419 40.4295 49.2602 40.471 49.4486 40.5642C49.6409 40.6573 49.7962 40.7781 49.9146 40.9266L49.8954 40.4492L50.7426 40.4147L50.8773 43.7624L50.03 43.7968L50.0103 43.3074C49.9085 43.4689 49.7635 43.6059 49.5755 43.7185C49.3912 43.8269 49.1749 43.8861 48.9265 43.8962C48.6461 43.9076 48.3868 43.8455 48.1486 43.71C47.9144 43.5742 47.724 43.3782 47.5772 43.1219C47.4343 42.8614 47.356 42.5599 47.3422 42.2175ZM49.9627 42.123C49.9544 41.9176 49.9073 41.744 49.8214 41.6022C49.7352 41.4564 49.6225 41.348 49.4832 41.277C49.3438 41.202 49.196 41.1676 49.0397 41.174C48.8835 41.1804 48.7408 41.2245 48.6117 41.3064C48.4826 41.3883 48.3789 41.5055 48.3008 41.658C48.2265 41.8063 48.1934 41.9811 48.2015 42.1826C48.2096 42.384 48.2568 42.5596 48.3431 42.7094C48.4332 42.8551 48.546 42.9655 48.6814 43.0407C48.8209 43.1157 48.9667 43.1501 49.119 43.1439C49.2752 43.1376 49.4199 43.0933 49.553 43.0113C49.686 42.9251 49.7896 42.8079 49.8639 42.6597C49.938 42.5074 49.971 42.3285 49.9627 42.123Z" fill="white"/>
<path d="M52.5144 39.1742L52.7914 43.6408L51.9511 43.6935L51.674 39.2269L52.5144 39.1742Z" fill="white"/>
<path d="M57.7256 43.2316L56.6482 41.6826L56.253 41.7206L56.4085 43.3581L55.5703 43.4385L55.1714 39.2364L56.74 39.0858C57.0633 39.0548 57.3442 39.0866 57.5827 39.1811C57.8209 39.2717 58.0052 39.4099 58.1356 39.5958C58.2697 39.7774 58.3481 39.9885 58.371 40.2294C58.3973 40.5063 58.3413 40.7648 58.2029 41.0049C58.0642 41.2409 57.8412 41.4162 57.5339 41.5308L58.6955 43.1385L57.7256 43.2316ZM56.193 41.0884L56.8935 41.0212C57.121 40.9994 57.2855 40.9289 57.387 40.8098C57.488 40.6867 57.5293 40.5268 57.5106 40.3302C57.4923 40.1375 57.4223 39.9944 57.3007 39.9008C57.1786 39.8031 57.0038 39.7652 56.7763 39.7871L56.0759 39.8543L56.193 41.0884Z" fill="white"/>
<path d="M62.5067 40.9136C62.5215 41.0336 62.5269 41.1427 62.5228 41.2407L60.1056 41.5418C60.1551 41.7794 60.2618 41.9571 60.4258 42.0748C60.5898 42.1925 60.7792 42.2379 60.994 42.2112C61.3044 42.1725 61.5087 42.0109 61.607 41.7265L62.5082 41.6142C62.4522 41.9462 62.3017 42.2331 62.0568 42.4749C61.8113 42.7126 61.4917 42.856 61.0977 42.9051C60.7794 42.9448 60.4843 42.9105 60.2124 42.8021C59.944 42.6893 59.7221 42.5118 59.5468 42.2696C59.3755 42.0269 59.2689 41.7355 59.227 41.3954C59.1846 41.0513 59.217 40.7405 59.3242 40.4631C59.4315 40.1857 59.6018 39.9613 59.8352 39.79C60.0686 39.6188 60.3485 39.5128 60.6747 39.4721C60.9891 39.433 61.278 39.4661 61.5414 39.5714C61.8089 39.6762 62.0258 39.8462 62.1921 40.0814C62.3619 40.3121 62.4668 40.5895 62.5067 40.9136ZM61.6117 40.7814C61.5811 40.5658 61.4824 40.4034 61.3154 40.2942C61.1479 40.181 60.9548 40.1381 60.7359 40.1653C60.529 40.1911 60.3618 40.2769 60.2344 40.4228C60.1104 40.5642 60.0463 40.7489 60.042 40.9769L61.6117 40.7814Z" fill="white"/>
<path d="M67.122 38.5275C67.5258 38.4619 67.8705 38.5346 68.1561 38.7455C68.4451 38.9518 68.6254 39.2778 68.697 39.7236L69.0086 41.6639L68.1774 41.7989L67.884 39.972C67.8425 39.7133 67.7455 39.5269 67.5932 39.4128C67.4402 39.2947 67.2509 39.2539 67.0253 39.2906C66.7996 39.3272 66.6307 39.4261 66.5185 39.5873C66.4096 39.7438 66.376 39.9514 66.4175 40.2101L66.7109 42.037L65.8797 42.172L65.5863 40.3451C65.5448 40.0864 65.4478 39.9 65.2955 39.7858C65.1425 39.6677 64.9532 39.627 64.7276 39.6636C64.498 39.7009 64.3271 39.8001 64.2149 39.9613C64.106 40.1178 64.0723 40.3255 64.1139 40.5842L64.4073 42.4111L63.576 42.546L63.0449 39.2385L63.8761 39.1035L63.9404 39.5036C64.0249 39.3469 64.1438 39.2153 64.2973 39.1087C64.4547 39.0014 64.6344 38.9314 64.8362 38.8986C65.0935 38.8569 65.332 38.8753 65.5518 38.954C65.7709 39.0287 65.9522 39.1585 66.0956 39.3435C66.1718 39.1351 66.3016 38.9568 66.4849 38.8086C66.6722 38.6598 66.8846 38.5661 67.122 38.5275Z" fill="white"/>
<path d="M72.7712 39.1228C72.7948 39.2414 72.8081 39.3497 72.8112 39.4478L70.4225 39.927C70.4893 40.1602 70.6087 40.3295 70.7809 40.4348C70.953 40.54 71.1452 40.5713 71.3576 40.5287C71.6643 40.4672 71.8562 40.291 71.9334 40L72.824 39.8214C72.7924 40.1566 72.6633 40.4539 72.4367 40.7131C72.2093 40.9684 71.901 41.1351 71.5117 41.2131C71.1972 41.2762 70.9004 41.2638 70.6213 41.1759C70.3453 41.0833 70.1111 40.9227 69.9185 40.6941C69.7299 40.4647 69.6023 40.182 69.5356 39.8459C69.4682 39.5058 69.4778 39.1935 69.5644 38.9089C69.651 38.6243 69.8045 38.388 70.0247 38.1999C70.245 38.0118 70.5163 37.8855 70.8387 37.8208C71.1494 37.7585 71.4399 37.7701 71.7103 37.8556C71.9847 37.9403 72.2135 38.0938 72.3966 38.3161C72.5828 38.5336 72.7077 38.8025 72.7712 39.1228ZM71.869 39.0571C71.8227 38.8444 71.7123 38.6898 71.5378 38.5932C71.3625 38.4927 71.1667 38.4642 70.9505 38.5075C70.746 38.5486 70.5855 38.6465 70.4691 38.8014C70.3558 38.9516 70.3054 39.1406 70.3178 39.3683L71.869 39.0571Z" fill="white"/>
<path d="M73.364 39.0596C73.2886 38.7295 73.2862 38.4219 73.3568 38.1367C73.4313 37.8506 73.5661 37.6126 73.7614 37.4227C73.9566 37.2328 74.1929 37.1058 74.4703 37.0417C74.6813 36.993 74.8934 36.9936 75.1064 37.0437C75.3185 37.0898 75.4987 37.1764 75.6471 37.3035L75.2929 35.7534L76.1252 35.5611L77.1217 39.9226L76.2894 40.1149L76.179 39.6316C76.1142 39.8162 76.0012 39.9788 75.84 40.1195C75.6788 40.2602 75.4771 40.3585 75.2348 40.4144C74.9613 40.4776 74.695 40.4647 74.4361 40.3756C74.1771 40.2865 73.952 40.1296 73.7608 39.9049C73.5726 39.6753 73.4403 39.3936 73.364 39.0596ZM75.9223 38.4809C75.8765 38.2805 75.7983 38.1186 75.6879 37.9952C75.5765 37.8679 75.4459 37.7823 75.2959 37.7383C75.1451 37.6904 74.9935 37.6841 74.8411 37.7193C74.6887 37.7545 74.5566 37.8243 74.4447 37.9288C74.3328 38.0332 74.2524 38.1676 74.2036 38.332C74.1578 38.4915 74.1573 38.6695 74.2022 38.8659C74.2471 39.0624 74.3257 39.2263 74.4379 39.3575C74.5532 39.4839 74.6843 39.5716 74.8312 39.6204C74.982 39.6682 75.1317 39.675 75.2802 39.6407C75.4325 39.6055 75.5666 39.5352 75.6824 39.4299C75.7973 39.3206 75.8777 39.1862 75.9235 39.0267C75.9685 38.8633 75.968 38.6813 75.9223 38.4809Z" fill="white"/>
<path d="M80.4137 35.6123L79.6534 40.9105L78.7862 41.1374L79.0666 39.3393L76.9565 36.5171L77.8703 36.2779L79.2888 38.3251L79.5465 35.8393L80.4137 35.6123Z" fill="white"/>
<defs>
<linearGradient id="paint0_linear_173_211" x1="-2.74359" y1="37.9539" x2="87.9174" y2="34.8498" gradientUnits="userSpaceOnUse">
<stop stop-color="#999999"/>
<stop offset="0.250521" stop-color="white"/>
<stop offset="0.880521" stop-color="white"/>
<stop offset="0.9999" stop-color="#999999"/>
</linearGradient>
</defs>
</svg>
